<svg width="19" height="19" viewBox="0 0 19 19" fill="none" xmlns="http://www.w3.org/2000/svg">
<g filter="url(#filter0_d_283_14)">
<path d="M9.00002 13.5714C11.5247 13.5714 13.5714 11.5247 13.5714 8.99999C13.5714 6.47526 11.5247 4.42856 9.00002 4.42856C6.47529 4.42856 4.42859 6.47526 4.42859 8.99999C4.42859 11.5247 6.47529 13.5714 9.00002 13.5714Z" fill="white"/>
<path d="M9 1V1.88889M9 16.1111V17M1 9H1.88889M16.1111 9H17M14.6569 3.34311L14.0284 3.97156M3.97156 14.0284L3.34311 14.6569M3.34311 3.34311L3.97156 3.97156M14.0284 14.0284L14.6569 14.6569" stroke="white" stroke-linecap="round" stroke-linejoin="round"/>
</g>
<defs>
<filter id="filter0_d_283_14" x="0.5" y="0.5" width="18" height="18" filterUnits="userSpaceOnUse" color-interpolation-filters="sRGB">
<feFlood flood-opacity="0" result="BackgroundImageFix"/>
<feColorMatrix in="SourceAlpha" type="matrix" values="0 0 0 0 0 0 0 0 0 0 0 0 0 0 0 0 0 0 127 0" result="hardAlpha"/>
<feOffset dx="1" dy="1"/>
<feComposite in2="hardAlpha" operator="out"/>
<feColorMatrix type="matrix" values="0 0 0 0 0 0 0 0 0 0 0 0 0 0 0 0 0 0 0.25 0"/>
<feBlend mode="normal" in2="BackgroundImageFix" result="effect1_dropShadow_283_14"/>
<feBlend mode="normal" in="SourceGraphic" in2="effect1_dropShadow_283_14" result="shape"/>
</filter>
</defs>
</svg>
