<svg width="21" height="22" viewBox="0 0 21 22" fill="none" xmlns="http://www.w3.org/2000/svg">
<path d="M12.47 22H8.53068C8.28386 22 8.04444 21.9143 7.85212 21.7571C7.65981 21.5998 7.52616 21.3805 7.47334 21.1354L7.03288 19.063C6.44529 18.8013 5.88813 18.4741 5.37166 18.0873L3.38361 18.7308C3.14829 18.8071 2.89438 18.7992 2.66405 18.7086C2.43372 18.6179 2.24083 18.45 2.1174 18.2325L0.143418 14.7664C0.0212835 14.5487 -0.0245627 14.2954 0.01338 14.0478C0.0513228 13.8002 0.170808 13.5731 0.352288 13.4035L1.89446 11.9735C1.82433 11.3257 1.82433 10.6721 1.89446 10.0243L0.352288 8.5976C0.170551 8.42795 0.0509032 8.20058 0.0129543 7.95276C-0.0249946 7.70494 0.0210064 7.45137 0.143418 7.2336L2.11307 3.7653C2.2365 3.54785 2.4294 3.37985 2.65973 3.28921C2.89006 3.19856 3.14396 3.19073 3.37928 3.267L5.36733 3.9105C5.63139 3.7125 5.90628 3.5277 6.18982 3.3605C6.46362 3.2043 6.745 3.0624 7.03288 2.9359L7.47443 0.8657C7.52699 0.620618 7.66039 0.401157 7.8525 0.243704C8.04461 0.0862508 8.28389 0.000263963 8.53068 0H12.47C12.7168 0.000263963 12.9561 0.0862508 13.1482 0.243704C13.3403 0.401157 13.4737 0.620618 13.5262 0.8657L13.9721 2.937C14.559 3.20019 15.116 3.52734 15.6333 3.9127L17.6225 3.2692C17.8576 3.19321 18.1113 3.20119 18.3414 3.29182C18.5715 3.38245 18.7642 3.55028 18.8876 3.7675L20.8572 7.2358C21.1083 7.6835 21.0217 8.25 20.6484 8.5987L19.1062 10.0287C19.1763 10.6765 19.1763 11.3301 19.1062 11.9779L20.6484 13.4079C21.0217 13.7577 21.1083 14.3231 20.8572 14.7708L18.8876 18.2391C18.7642 18.4566 18.5713 18.6246 18.3409 18.7152C18.1106 18.8058 17.8567 18.8137 17.6214 18.7374L15.6333 18.0939C15.1173 18.4804 14.5604 18.8073 13.9732 19.0685L13.5262 21.1354C13.4735 21.3803 13.34 21.5995 13.1479 21.7567C12.9558 21.914 12.7166 21.9998 12.47 22ZM10.496 6.6C9.34791 6.6 8.24683 7.06357 7.435 7.88873C6.62317 8.71389 6.16709 9.83305 6.16709 11C6.16709 12.167 6.62317 13.2861 7.435 14.1113C8.24683 14.9364 9.34791 15.4 10.496 15.4C11.6441 15.4 12.7452 14.9364 13.557 14.1113C14.3688 13.2861 14.8249 12.167 14.8249 11C14.8249 9.83305 14.3688 8.71389 13.557 7.88873C12.7452 7.06357 11.6441 6.6 10.496 6.6Z" fill="#7269DC"/>
</svg>
