<svg width="14" height="15" viewBox="0 0 14 15" fill="none" xmlns="http://www.w3.org/2000/svg">
<g filter="url(#filter0_d_242_73)">
<path d="M7.71952 14H5.2809C5.1281 14 4.97989 13.9455 4.86084 13.8454C4.74179 13.7453 4.65905 13.6057 4.62635 13.4498L4.35368 12.131C3.98994 11.9645 3.64503 11.7562 3.32531 11.5101L2.09461 11.9196C1.94894 11.9681 1.79176 11.9632 1.64918 11.9055C1.50659 11.8478 1.38718 11.7409 1.31077 11.6025L0.0887826 9.3968C0.0131755 9.25829 -0.0152055 9.09708 0.00828288 8.93953C0.0317712 8.78197 0.105738 8.63742 0.218083 8.5295L1.17276 7.6195C1.12935 7.20728 1.12935 6.79132 1.17276 6.3791L0.218083 5.4712C0.105579 5.36324 0.0315115 5.21855 0.00801932 5.06085C-0.0154729 4.90314 0.013004 4.74178 0.0887826 4.6032L1.30809 2.3961C1.3845 2.25772 1.50391 2.15081 1.6465 2.09313C1.78908 2.03545 1.94626 2.03046 2.09193 2.079L3.32263 2.4885C3.4861 2.3625 3.65627 2.2449 3.83179 2.1385C4.00129 2.0391 4.17548 1.9488 4.35368 1.8683L4.62703 0.5509C4.65957 0.394938 4.74214 0.255281 4.86107 0.155084C4.98 0.0548869 5.12812 0.000167976 5.2809 0H7.71952C7.87229 0.000167976 8.02042 0.0548869 8.13934 0.155084C8.25827 0.255281 8.34085 0.394938 8.37339 0.5509L8.64941 1.869C9.01269 2.03649 9.35749 2.24467 9.67778 2.4899L10.9091 2.0804C11.0547 2.03204 11.2118 2.03712 11.3542 2.09479C11.4966 2.15247 11.6159 2.25927 11.6923 2.3975L12.9116 4.6046C13.0671 4.8895 13.0135 5.25 12.7823 5.4719L11.8276 6.3819C11.8711 6.79412 11.8711 7.21008 11.8276 7.6223L12.7823 8.5323C13.0135 8.7549 13.0671 9.1147 12.9116 9.3996L11.6923 11.6067C11.6159 11.7451 11.4965 11.852 11.3539 11.9097C11.2113 11.9674 11.0541 11.9723 10.9085 11.9238L9.67778 11.5143C9.3583 11.7602 9.01361 11.9683 8.65008 12.1345L8.37339 13.4498C8.34071 13.6056 8.25808 13.7451 8.13916 13.8452C8.02025 13.9452 7.8722 13.9999 7.71952 14ZM6.49753 4.2C5.7868 4.2 5.10518 4.495 4.60262 5.0201C4.10006 5.5452 3.81773 6.25739 3.81773 7C3.81773 7.74261 4.10006 8.4548 4.60262 8.9799C5.10518 9.505 5.7868 9.8 6.49753 9.8C7.20825 9.8 7.88987 9.505 8.39243 8.9799C8.89499 8.4548 9.17733 7.74261 9.17733 7C9.17733 6.25739 8.89499 5.5452 8.39243 5.0201C7.88987 4.495 7.20825 4.2 6.49753 4.2Z" fill="#452C16"/>
</g>
<defs>
<filter id="filter0_d_242_73" x="0" y="0" width="14" height="15" filterUnits="userSpaceOnUse" color-interpolation-filters="sRGB">
<feFlood flood-opacity="0" result="BackgroundImageFix"/>
<feColorMatrix in="SourceAlpha" type="matrix" values="0 0 0 0 0 0 0 0 0 0 0 0 0 0 0 0 0 0 127 0" result="hardAlpha"/>
<feOffset dx="1" dy="1"/>
<feComposite in2="hardAlpha" operator="out"/>
<feColorMatrix type="matrix" values="0 0 0 0 0 0 0 0 0 0 0 0 0 0 0 0 0 0 0.25 0"/>
<feBlend mode="normal" in2="BackgroundImageFix" result="effect1_dropShadow_242_73"/>
<feBlend mode="normal" in="SourceGraphic" in2="effect1_dropShadow_242_73" result="shape"/>
</filter>
</defs>
</svg>
