<svg width="13" height="14" viewBox="0 0 13 14" fill="none" xmlns="http://www.w3.org/2000/svg">
<g filter="url(#filter0_d_265_24)">
<path d="M7.12571 13H4.87467C4.73363 13 4.59682 12.9494 4.48693 12.8565C4.37704 12.7635 4.30066 12.6339 4.27048 12.4891L4.01879 11.2645C3.68302 11.1099 3.36465 10.9165 3.06952 10.688L1.93349 11.0682C1.79902 11.1133 1.65393 11.1086 1.52232 11.0551C1.3907 11.0015 1.28047 10.9022 1.20994 10.7738L0.0819531 8.7256C0.012162 8.59699 -0.0140358 8.44729 0.00764573 8.30099C0.0293273 8.15469 0.0976045 8.02046 0.201307 7.92025L1.08255 7.07525C1.04247 6.69247 1.04247 6.30623 1.08255 5.92345L0.201307 5.0804C0.0974576 4.98015 0.0290876 4.8458 0.00740245 4.69936C-0.0142827 4.55292 0.0120037 4.40308 0.0819531 4.2744L1.20747 2.22495C1.278 2.09646 1.38823 1.99718 1.51984 1.94362C1.65146 1.89006 1.79655 1.88543 1.93102 1.9305L3.06704 2.31075C3.21794 2.19375 3.37502 2.08455 3.53704 1.98575C3.6935 1.89345 3.85429 1.8096 4.01879 1.73485L4.2711 0.51155C4.30114 0.366729 4.37736 0.237047 4.48714 0.144007C4.59692 0.0509664 4.73365 0.000155978 4.87467 0H7.12571C7.26673 0.000155978 7.40346 0.0509664 7.51324 0.144007C7.62302 0.237047 7.69924 0.366729 7.72928 0.51155L7.98407 1.7355C8.3194 1.89102 8.63769 2.08434 8.93334 2.31205L10.07 1.9318C10.2044 1.8869 10.3493 1.89161 10.4808 1.94516C10.6123 1.99872 10.7224 2.09789 10.7929 2.22625L11.9184 4.2757C12.0619 4.54025 12.0124 4.875 11.7991 5.08105L10.9178 5.92605C10.9579 6.30883 10.9579 6.69507 10.9178 7.07785L11.7991 7.92285C12.0124 8.12955 12.0619 8.46365 11.9184 8.7282L10.7929 10.7777C10.7224 10.9061 10.6122 11.0054 10.4805 11.059C10.3489 11.1125 10.2038 11.1172 10.0694 11.0721L8.93334 10.6918C8.63843 10.9202 8.32026 11.1134 7.98469 11.2677L7.72928 12.4891C7.69912 12.6338 7.62284 12.7633 7.51307 12.8562C7.40331 12.9492 7.26664 12.9999 7.12571 13ZM5.99772 3.9C5.34166 3.9 4.71247 4.17393 4.24857 4.66152C3.78467 5.14912 3.52405 5.81044 3.52405 6.5C3.52405 7.18956 3.78467 7.85088 4.24857 8.33848C4.71247 8.82607 5.34166 9.1 5.99772 9.1C6.65377 9.1 7.28296 8.82607 7.74686 8.33848C8.21076 7.85088 8.47138 7.18956 8.47138 6.5C8.47138 5.81044 8.21076 5.14912 7.74686 4.66152C7.28296 4.17393 6.65377 3.9 5.99772 3.9Z" fill="white"/>
</g>
<defs>
<filter id="filter0_d_265_24" x="0" y="0" width="13" height="14" filterUnits="userSpaceOnUse" color-interpolation-filters="sRGB">
<feFlood flood-opacity="0" result="BackgroundImageFix"/>
<feColorMatrix in="SourceAlpha" type="matrix" values="0 0 0 0 0 0 0 0 0 0 0 0 0 0 0 0 0 0 127 0" result="hardAlpha"/>
<feOffset dx="1" dy="1"/>
<feComposite in2="hardAlpha" operator="out"/>
<feColorMatrix type="matrix" values="0 0 0 0 0 0 0 0 0 0 0 0 0 0 0 0 0 0 0.25 0"/>
<feBlend mode="normal" in2="BackgroundImageFix" result="effect1_dropShadow_265_24"/>
<feBlend mode="normal" in="SourceGraphic" in2="effect1_dropShadow_265_24" result="shape"/>
</filter>
</defs>
</svg>
