<svg width="31" height="31" viewBox="0 0 31 31" fill="none" xmlns="http://www.w3.org/2000/svg">
<path d="M10.5836 27.2297H6.47817C5.73306 27.2297 5.09574 26.9644 4.56623 26.4338C4.03672 25.9031 3.7714 25.2669 3.77028 24.5252V20.4181L0.770825 17.3969C0.50607 17.1254 0.311131 16.8271 0.186015 16.5021C0.0608983 16.177 -0.00110228 15.8452 1.48287e-05 15.5067C1.48287e-05 15.1705 0.0625739 14.8375 0.18769 14.508C0.312807 14.1785 0.506628 13.8779 0.769149 13.6065L3.77028 10.5836V6.47817C3.77028 5.73306 4.0356 5.09574 4.56623 4.56623C5.09685 4.03672 5.73361 3.7714 6.47649 3.77028H10.5836L13.6048 0.770825C13.8763 0.50607 14.1745 0.311131 14.4996 0.186015C14.8247 0.0608983 15.1565 -0.00110228 15.495 1.48287e-05C15.8312 1.48287e-05 16.1641 0.0625739 16.4937 0.18769C16.8232 0.312807 17.1237 0.506628 17.3952 0.769149L20.4164 3.77028H24.5218C25.2669 3.77028 25.9048 4.0356 26.4354 4.56623C26.9661 5.09685 27.2308 5.73361 27.2297 6.47649V10.5836L30.2292 13.6048C30.4939 13.8763 30.6889 14.1745 30.814 14.4996C30.9391 14.8247 31.0011 15.1565 31 15.495C31 15.8312 30.938 16.1641 30.814 16.4937C30.69 16.8232 30.4956 17.1237 30.2309 17.3952L27.2297 20.4164V24.5218C27.2297 25.2669 26.9644 25.9048 26.4338 26.4354C25.9031 26.9661 25.2664 27.2308 24.5235 27.2297H20.4164L17.3952 30.2292C17.1237 30.4939 16.8255 30.6889 16.5004 30.814C16.1753 30.9391 15.8435 31.0011 15.505 31C15.1688 31 14.8359 30.938 14.5063 30.814C14.1768 30.69 13.8763 30.4956 13.6048 30.2309L10.5836 27.2297Z" fill="#FFA400"/>
<g filter="url(#filter0_d_281_2)">
<rect x="14" y="8" width="3" height="9" fill="#2C2B32"/>
<rect x="21" y="20" width="2.82843" height="7.07109" transform="rotate(135 21 20)" fill="#2C2B32"/>
</g>
<defs>
<filter id="filter0_d_281_2" x="14" y="8" width="8" height="15" filterUnits="userSpaceOnUse" color-interpolation-filters="sRGB">
<feFlood flood-opacity="0" result="BackgroundImageFix"/>
<feColorMatrix in="SourceAlpha" type="matrix" values="0 0 0 0 0 0 0 0 0 0 0 0 0 0 0 0 0 0 127 0" result="hardAlpha"/>
<feOffset dx="1" dy="1"/>
<feComposite in2="hardAlpha" operator="out"/>
<feColorMatrix type="matrix" values="0 0 0 0 0 0 0 0 0 0 0 0 0 0 0 0 0 0 0.25 0"/>
<feBlend mode="normal" in2="BackgroundImageFix" result="effect1_dropShadow_281_2"/>
<feBlend mode="normal" in="SourceGraphic" in2="effect1_dropShadow_281_2" result="shape"/>
</filter>
</defs>
</svg>
